<svg width="1440" height="1024" viewBox="0 0 1440 1024" fill="none" xmlns="http://www.w3.org/2000/svg">
<g clip-path="url(#clip0_416_7668)">
<rect width="1440" height="1024" fill="white"/>
<mask id="mask0_416_7668" style="mask-type:alpha" maskUnits="userSpaceOnUse" x="-370" y="-450" width="2157" height="1769">
<rect x="-57.8438" y="-449.092" width="1893.93" height="1373.19" transform="rotate(13.1382 -57.8438 -449.092)" fill="#D9D9D9"/>
</mask>
<g mask="url(#mask0_416_7668)">
<path d="M256.484 750.686C-115.951 652.081 -258.796 285.033 -283.665 113.835L-217.598 -585.829L-46.3912 -1319.33C236.91 -1323.74 901.878 -1309.6 1295.34 -1217.76C1785.59 -1103.33 2008.19 -514.874 2081.58 -320.855L2082.29 -318.991C2154.96 -126.907 1794.62 1000.25 1665.1 721.931C1535.58 443.609 722.028 873.943 256.484 750.686Z" fill="url(#paint0_linear_416_7668)" fill-opacity="0.25"/>
<path d="M281.484 663.686C-90.9509 565.081 -233.796 198.033 -258.665 26.8345L-192.598 -672.829L-21.3912 -1406.33C261.91 -1410.74 926.878 -1396.6 1320.34 -1304.76C1810.59 -1190.33 2033.19 -601.874 2106.58 -407.855L2107.29 -405.991C2179.96 -213.907 1819.62 913.253 1690.1 634.931C1560.58 356.609 747.028 786.943 281.484 663.686Z" fill="url(#paint1_linear_416_7668)" fill-opacity="0.25"/>
</g>
<rect x="1313" y="33" width="76" height="34" rx="17" fill="url(#paint2_linear_416_7668)"/>
<path d="M1331.51 55.098C1330.83 55.098 1330.21 54.9813 1329.66 54.748C1329.12 54.5147 1328.69 54.1787 1328.37 53.74C1328.06 53.3013 1327.89 52.7833 1327.88 52.186H1329.98C1330.01 52.5873 1330.15 52.9047 1330.4 53.138C1330.67 53.3713 1331.02 53.488 1331.47 53.488C1331.93 53.488 1332.28 53.3807 1332.55 53.166C1332.81 52.942 1332.94 52.6527 1332.94 52.298C1332.94 52.0087 1332.85 51.7707 1332.67 51.584C1332.49 51.3973 1332.27 51.2527 1332 51.15C1331.74 51.038 1331.37 50.9167 1330.91 50.786C1330.27 50.5993 1329.76 50.4173 1329.35 50.24C1328.96 50.0533 1328.62 49.778 1328.33 49.414C1328.05 49.0407 1327.91 48.546 1327.91 47.93C1327.91 47.3513 1328.06 46.8473 1328.35 46.418C1328.64 45.9887 1329.04 45.662 1329.56 45.438C1330.09 45.2047 1330.68 45.088 1331.36 45.088C1332.36 45.088 1333.18 45.3353 1333.81 45.83C1334.44 46.3153 1334.79 46.9967 1334.86 47.874H1332.7C1332.68 47.538 1332.54 47.2627 1332.27 47.048C1332 46.824 1331.65 46.712 1331.22 46.712C1330.83 46.712 1330.53 46.81 1330.29 47.006C1330.07 47.202 1329.96 47.4867 1329.96 47.86C1329.96 48.1213 1330.04 48.3407 1330.21 48.518C1330.39 48.686 1330.6 48.826 1330.85 48.938C1331.11 49.0407 1331.48 49.162 1331.94 49.302C1332.58 49.4887 1333.1 49.6753 1333.5 49.862C1333.9 50.0487 1334.24 50.3287 1334.53 50.702C1334.82 51.0753 1334.97 51.5653 1334.97 52.172C1334.97 52.6947 1334.83 53.18 1334.56 53.628C1334.29 54.076 1333.89 54.4353 1333.37 54.706C1332.85 54.9673 1332.23 55.098 1331.51 55.098ZM1337.66 46.32C1337.32 46.32 1337.03 46.2127 1336.79 45.998C1336.57 45.774 1336.46 45.4987 1336.46 45.172C1336.46 44.8453 1336.57 44.5747 1336.79 44.36C1337.03 44.136 1337.32 44.024 1337.66 44.024C1338.01 44.024 1338.29 44.136 1338.52 44.36C1338.75 44.5747 1338.87 44.8453 1338.87 45.172C1338.87 45.4987 1338.75 45.774 1338.52 45.998C1338.29 46.2127 1338.01 46.32 1337.66 46.32ZM1338.63 47.244V55H1336.67V47.244H1338.63ZM1343.6 47.118C1344.18 47.118 1344.69 47.2347 1345.13 47.468C1345.57 47.692 1345.91 47.986 1346.16 48.35V47.244H1348.14V55.056C1348.14 55.7747 1347.99 56.414 1347.7 56.974C1347.41 57.5433 1346.98 57.9913 1346.4 58.318C1345.82 58.654 1345.12 58.822 1344.3 58.822C1343.2 58.822 1342.29 58.5653 1341.59 58.052C1340.89 57.5387 1340.49 56.8387 1340.4 55.952H1342.34C1342.44 56.3067 1342.66 56.5867 1343 56.792C1343.34 57.0067 1343.76 57.114 1344.25 57.114C1344.81 57.114 1345.28 56.9413 1345.63 56.596C1345.99 56.26 1346.16 55.7467 1346.16 55.056V53.852C1345.91 54.216 1345.56 54.5193 1345.11 54.762C1344.67 55.0047 1344.17 55.126 1343.6 55.126C1342.95 55.126 1342.35 54.958 1341.81 54.622C1341.27 54.286 1340.84 53.8147 1340.52 53.208C1340.21 52.592 1340.06 51.8873 1340.06 51.094C1340.06 50.31 1340.21 49.6147 1340.52 49.008C1340.84 48.4013 1341.26 47.9347 1341.8 47.608C1342.34 47.2813 1342.94 47.118 1343.6 47.118ZM1346.16 51.122C1346.16 50.646 1346.07 50.24 1345.88 49.904C1345.7 49.5587 1345.44 49.2973 1345.13 49.12C1344.81 48.9333 1344.47 48.84 1344.11 48.84C1343.74 48.84 1343.41 48.9287 1343.1 49.106C1342.79 49.2833 1342.54 49.5447 1342.34 49.89C1342.15 50.226 1342.06 50.6273 1342.06 51.094C1342.06 51.5607 1342.15 51.9713 1342.34 52.326C1342.54 52.6713 1342.79 52.9373 1343.1 53.124C1343.41 53.3107 1343.75 53.404 1344.11 53.404C1344.47 53.404 1344.81 53.3153 1345.13 53.138C1345.44 52.9513 1345.7 52.69 1345.88 52.354C1346.07 52.0087 1346.16 51.598 1346.16 51.122ZM1354.35 47.132C1355.27 47.132 1356.02 47.426 1356.59 48.014C1357.16 48.5927 1357.44 49.4047 1357.44 50.45V55H1355.48V50.716C1355.48 50.1 1355.33 49.6287 1355.02 49.302C1354.71 48.966 1354.29 48.798 1353.76 48.798C1353.22 48.798 1352.79 48.966 1352.47 49.302C1352.17 49.6287 1352.01 50.1 1352.01 50.716V55H1350.05V47.244H1352.01V48.21C1352.27 47.874 1352.6 47.6127 1353.01 47.426C1353.42 47.23 1353.86 47.132 1354.35 47.132ZM1364.6 45.228V55H1362.64V45.228H1364.6ZM1370.84 47.132C1371.76 47.132 1372.51 47.426 1373.08 48.014C1373.65 48.5927 1373.93 49.4047 1373.93 50.45V55H1371.97V50.716C1371.97 50.1 1371.82 49.6287 1371.51 49.302C1371.2 48.966 1370.78 48.798 1370.25 48.798C1369.71 48.798 1369.28 48.966 1368.96 49.302C1368.65 49.6287 1368.5 50.1 1368.5 50.716V55H1366.54V47.244H1368.5V48.21C1368.76 47.874 1369.09 47.6127 1369.49 47.426C1369.9 47.23 1370.35 47.132 1370.84 47.132Z" fill="white"/>
<g clip-path="url(#clip1_416_7668)">
<path d="M79.4858 44.8808L91.0306 49.3003C91.0306 49.3003 91.852 33.4627 76.0068 34.0058C76.0068 34.0058 79.4858 38.1826 79.4858 44.8808Z" fill="url(#paint3_linear_416_7668)"/>
<path d="M75.7663 33.9893C75.7663 33.9893 52.3322 34.9108 54.1964 62.9712L42.6387 59.3505C42.6387 59.3505 39.656 39.6177 57.179 32.1953C57.179 32.1953 61.2801 29.8418 68.3638 30.2039L82.453 34.7207" fill="url(#paint4_linear_416_7668)"/>
<path d="M42.4474 63.877L54.0107 67.6787C54.0107 67.6787 51.9602 81.6183 61.0945 85.9632L50.4688 82.5235C50.4688 82.5235 41.1369 80.8942 42.4474 63.877Z" fill="url(#paint5_linear_416_7668)"/>
<path d="M78.9796 64.8418L89.9674 68.5855C89.9674 68.5855 87.7511 91.0321 61.0938 85.9631L57.7812 83.5318C57.7812 83.5318 76.7426 86.0228 78.9796 64.8418Z" fill="url(#paint6_linear_416_7668)"/>
</g>
</g>
<defs>
<linearGradient id="paint0_linear_416_7668" x1="1144.67" y1="-1252.93" x2="655.22" y2="844.009" gradientUnits="userSpaceOnUse">
<stop stop-color="white" stop-opacity="0"/>
<stop offset="1" stop-color="#AAEFFF"/>
</linearGradient>
<linearGradient id="paint1_linear_416_7668" x1="1169.67" y1="-1339.93" x2="680.22" y2="757.009" gradientUnits="userSpaceOnUse">
<stop stop-color="white" stop-opacity="0"/>
<stop offset="1" stop-color="#53D6FF"/>
</linearGradient>
<linearGradient id="paint2_linear_416_7668" x1="1389" y1="33" x2="1363.65" y2="89.6601" gradientUnits="userSpaceOnUse">
<stop stop-color="#D9B8F3"/>
<stop offset="1" stop-color="#81A3E4"/>
</linearGradient>
<linearGradient id="paint3_linear_416_7668" x1="86.4995" y1="50.5005" x2="85.6492" y2="33.0067" gradientUnits="userSpaceOnUse">
<stop stop-color="white"/>
<stop offset="1" stop-color="#FE97FF"/>
</linearGradient>
<linearGradient id="paint4_linear_416_7668" x1="66.701" y1="18.6647" x2="60.6337" y2="57.0696" gradientUnits="userSpaceOnUse">
<stop stop-color="#EFF2FF"/>
<stop offset="0.09" stop-color="#E3E8FF"/>
<stop offset="0.23" stop-color="#D2DCFF"/>
<stop offset="0.42" stop-color="#BCCBFF"/>
<stop offset="0.63" stop-color="#ABBDFF"/>
<stop offset="0.87" stop-color="#9FB2FF"/>
</linearGradient>
<linearGradient id="paint5_linear_416_7668" x1="46.7834" y1="77.5396" x2="63.0736" y2="68.467" gradientUnits="userSpaceOnUse">
<stop stop-color="#FEA1FF"/>
<stop offset="1" stop-color="white"/>
</linearGradient>
<linearGradient id="paint6_linear_416_7668" x1="86.3947" y1="60.4289" x2="68.756" y2="85.5239" gradientUnits="userSpaceOnUse">
<stop stop-color="#F2F5FF"/>
<stop offset="0.165924" stop-color="#D8E0FF"/>
<stop offset="0.294094" stop-color="#C4CFFF"/>
<stop offset="0.48" stop-color="#B4C3FF"/>
<stop offset="0.73" stop-color="#9AAEFF"/>
<stop offset="0.99" stop-color="#8CA3FE"/>
</linearGradient>
<clipPath id="clip0_416_7668">
<rect width="1440" height="1024" fill="white"/>
</clipPath>
<clipPath id="clip1_416_7668">
<rect width="48.6094" height="56.4484" fill="white" transform="translate(42.3203 30.166)"/>
</clipPath>
</defs>
</svg>
